<mxfile host="Electron" agent="Mozilla/5.0 (Windows NT 10.0; Win64; x64) AppleWebKit/537.36 (KHTML, like Gecko) draw.io/25.0.2 Chrome/128.0.6613.186 Electron/32.2.5 Safari/537.36" version="25.0.2">
  <diagram name="Страница — 1" id="mfqrUymiCWebkhwJguR4">
    <mxGraphModel dx="478" dy="565" grid="1" gridSize="10" guides="1" tooltips="1" connect="1" arrows="1" fold="1" page="1" pageScale="1" pageWidth="827" pageHeight="1169" math="0" shadow="0">
      <root>
        <mxCell id="0" />
        <mxCell id="1" parent="0" />
        <mxCell id="Bba-xzNpZsTvwluypwJz-3" value="" style="edgeStyle=orthogonalEdgeStyle;rounded=0;orthogonalLoop=1;jettySize=auto;html=1;" edge="1" parent="1" target="Bba-xzNpZsTvwluypwJz-2">
          <mxGeometry relative="1" as="geometry">
            <mxPoint x="415" y="310" as="sourcePoint" />
          </mxGeometry>
        </mxCell>
        <mxCell id="Bba-xzNpZsTvwluypwJz-1" value="Пациент" style="shape=umlActor;verticalLabelPosition=bottom;verticalAlign=top;html=1;outlineConnect=0;" vertex="1" parent="1">
          <mxGeometry x="400" y="220" width="30" height="60" as="geometry" />
        </mxCell>
        <mxCell id="Bba-xzNpZsTvwluypwJz-10" value="" style="edgeStyle=orthogonalEdgeStyle;rounded=0;orthogonalLoop=1;jettySize=auto;html=1;entryX=0.525;entryY=-0.034;entryDx=0;entryDy=0;entryPerimeter=0;" edge="1" parent="1" source="Bba-xzNpZsTvwluypwJz-2" target="Bba-xzNpZsTvwluypwJz-7">
          <mxGeometry relative="1" as="geometry">
            <mxPoint x="415" y="550" as="targetPoint" />
          </mxGeometry>
        </mxCell>
        <mxCell id="Bba-xzNpZsTvwluypwJz-2" value="&lt;div&gt;&lt;br&gt;&lt;/div&gt;&lt;div&gt;Ресепшен&lt;/div&gt;" style="whiteSpace=wrap;html=1;verticalAlign=top;" vertex="1" parent="1">
          <mxGeometry x="355" y="400" width="120" height="70" as="geometry" />
        </mxCell>
        <mxCell id="Bba-xzNpZsTvwluypwJz-6" value="" style="edgeStyle=orthogonalEdgeStyle;rounded=0;orthogonalLoop=1;jettySize=auto;html=1;entryX=0.005;entryY=0.418;entryDx=0;entryDy=0;entryPerimeter=0;" edge="1" parent="1" source="Bba-xzNpZsTvwluypwJz-4" target="Bba-xzNpZsTvwluypwJz-2">
          <mxGeometry relative="1" as="geometry">
            <mxPoint x="350" y="430" as="targetPoint" />
          </mxGeometry>
        </mxCell>
        <mxCell id="Bba-xzNpZsTvwluypwJz-4" value="Лаборант" style="shape=umlActor;verticalLabelPosition=bottom;verticalAlign=top;html=1;outlineConnect=0;" vertex="1" parent="1">
          <mxGeometry x="120" y="400" width="30" height="60" as="geometry" />
        </mxCell>
        <mxCell id="Bba-xzNpZsTvwluypwJz-7" value="Файловый сервер" style="shape=cylinder3;whiteSpace=wrap;html=1;boundedLbl=1;backgroundOutline=1;size=15;" vertex="1" parent="1">
          <mxGeometry x="320" y="600" width="180" height="80" as="geometry" />
        </mxCell>
        <mxCell id="Bba-xzNpZsTvwluypwJz-8" value="Файлы с результатами&amp;nbsp;&lt;div&gt;анализов пацинета&amp;nbsp;&lt;/div&gt;&lt;div&gt;с персональнымми данными&amp;nbsp;&lt;/div&gt;" style="text;html=1;align=center;verticalAlign=middle;resizable=0;points=[];autosize=1;strokeColor=none;fillColor=none;" vertex="1" parent="1">
          <mxGeometry x="165" y="430" width="190" height="60" as="geometry" />
        </mxCell>
        <mxCell id="Bba-xzNpZsTvwluypwJz-13" style="edgeStyle=orthogonalEdgeStyle;rounded=0;orthogonalLoop=1;jettySize=auto;html=1;entryX=1;entryY=0.5;entryDx=0;entryDy=0;" edge="1" parent="1" source="Bba-xzNpZsTvwluypwJz-11" target="Bba-xzNpZsTvwluypwJz-2">
          <mxGeometry relative="1" as="geometry" />
        </mxCell>
        <mxCell id="Bba-xzNpZsTvwluypwJz-11" value="Специалист и&amp;nbsp;&lt;div&gt;администратор&lt;/div&gt;" style="shape=umlActor;verticalLabelPosition=bottom;verticalAlign=top;html=1;outlineConnect=0;" vertex="1" parent="1">
          <mxGeometry x="640" y="405" width="30" height="60" as="geometry" />
        </mxCell>
        <mxCell id="Bba-xzNpZsTvwluypwJz-14" value="Получение результатов&amp;nbsp;&lt;div&gt;анализов&lt;/div&gt;" style="text;html=1;align=center;verticalAlign=middle;resizable=0;points=[];autosize=1;strokeColor=none;fillColor=none;" vertex="1" parent="1">
          <mxGeometry x="490" y="400" width="160" height="40" as="geometry" />
        </mxCell>
        <mxCell id="Bba-xzNpZsTvwluypwJz-15" value="Получение результатов&amp;nbsp;&lt;div&gt;анализов&lt;/div&gt;" style="text;html=1;align=center;verticalAlign=middle;resizable=0;points=[];autosize=1;strokeColor=none;fillColor=none;" vertex="1" parent="1">
          <mxGeometry x="254" y="320" width="160" height="40" as="geometry" />
        </mxCell>
        <mxCell id="Bba-xzNpZsTvwluypwJz-16" value="Сохраниение и получение&amp;nbsp;&lt;div&gt;файлов с результатами анализов&amp;nbsp;&lt;/div&gt;" style="text;html=1;align=center;verticalAlign=middle;resizable=0;points=[];autosize=1;strokeColor=none;fillColor=none;" vertex="1" parent="1">
          <mxGeometry x="305" y="530" width="210" height="40" as="geometry" />
        </mxCell>
      </root>
    </mxGraphModel>
  </diagram>
</mxfile>
